<svg width="178" height="179" viewBox="0 0 178 179" fill="none" xmlns="http://www.w3.org/2000/svg">
    <path d="M64.4714 155.523C64.6586 153.732 61.969 151.979 58.464 151.609C54.9589 151.238 51.9657 152.39 51.7785 154.181C51.5912 155.973 54.2809 157.725 57.7859 158.096C61.2909 158.466 64.2841 157.314 64.4714 155.523Z"
          fill="#989FED"/>
    <path d="M120.206 158.086C123.711 157.716 126.401 155.963 126.214 154.172C126.026 152.381 123.033 151.229 119.528 151.599C116.023 151.969 113.333 153.722 113.521 155.513C113.708 157.305 116.701 158.457 120.206 158.086Z"
          fill="#989FED"/>
    <path d="M89.0073 85.283C113.169 85.283 132.757 82.417 132.757 78.8815C132.757 75.346 113.169 72.48 89.0073 72.48C64.8451 72.48 45.2578 75.346 45.2578 78.8815C45.2578 82.417 64.8451 85.283 89.0073 85.283Z"
          fill="#989FED"/>
    <path d="M126.813 77.5465H51.2019C46.3593 77.5465 42.4219 76.5453 42.4219 73.6934V34.45C42.4219 31.6133 46.4197 27.8057 51.2019 27.3203C76.2146 24.8022 102.826 24.8477 126.813 27.3203C131.595 27.8057 135.593 31.5981 135.593 34.45V73.6934C135.593 76.5301 131.656 77.5465 126.813 77.5465Z"
          fill="url(#paint0_radial_303_7196)"/>
    <path d="M51.2019 80.5803H126.813C131.656 80.5803 135.593 81.5815 135.593 84.4334V146.659C135.593 149.495 131.595 153.303 126.813 153.788C101.8 156.306 75.1887 156.261 51.2019 153.788C46.4197 153.303 42.4219 149.51 42.4219 146.659V84.4334C42.4219 81.5967 46.3593 80.5803 51.2019 80.5803Z"
          fill="url(#paint1_radial_303_7196)"/>
    <path d="M70.5887 71.8427C78.4872 71.8427 84.8902 65.4042 84.8902 57.462C84.8902 49.5197 78.4872 43.0813 70.5887 43.0813C62.6901 43.0813 56.2871 49.5197 56.2871 57.462C56.2871 65.4042 62.6901 71.8427 70.5887 71.8427Z"
          fill="#97DAF8"/>
    <path d="M78.1271 58.7553C78.178 55.1364 75.3017 52.1612 71.7027 52.1101C68.1038 52.0589 65.145 54.9511 65.0941 58.57C65.0432 62.1889 67.9195 65.164 71.5185 65.2152C75.1174 65.2664 78.0762 62.3742 78.1271 58.7553Z"
          fill="url(#paint2_radial_303_7196)"/>
    <path d="M72.9154 52.9179C72.938 51.3095 71.6597 49.9872 70.0602 49.9645C68.4606 49.9417 67.1456 51.2272 67.123 52.8355C67.1004 54.4439 68.3787 55.7662 69.9783 55.789C71.5778 55.8117 72.8928 54.5263 72.9154 52.9179Z"
          fill="white"/>
    <path d="M54.1148 42.9602C58.716 38.6672 68.0392 32.4477 77.0154 36.0429C77.1361 36.0884 77.2567 35.9974 77.2115 35.8912C76.8042 34.6169 75.9593 32.2505 75.6124 31.2796C75.5068 30.9914 75.2805 30.7639 74.9938 30.6577C66.6814 27.5176 58.3841 29.8992 53.451 42.5506C53.3001 42.945 53.8131 43.2635 54.1148 42.9602Z"
          fill="#240093"/>
    <path d="M95.2084 48.6485C99.7795 43.4302 104.652 38.2119 115.861 40.8211C116.238 40.9121 116.495 40.3963 116.208 40.1081C111.456 35.178 107.021 33.7976 102.163 36.0579C97.9993 37.9844 95.4196 43.8095 94.5748 48.2845C94.4993 48.694 94.9519 48.9519 95.2084 48.6485Z"
          fill="#240093"/>
    <path d="M123.081 50.7332L102.183 45.1067C100.912 44.7644 99.6048 45.5234 99.2643 46.802L94.2659 65.5729C93.9254 66.8516 94.6802 68.1657 95.9518 68.508L116.849 74.1345C118.121 74.4769 119.428 73.7179 119.768 72.4392L124.766 53.6683C125.107 52.3897 124.352 51.0756 123.081 50.7332Z"
          fill="#97DAF8"/>
    <path d="M120.244 52.3281L103.821 47.9062C102.613 47.5811 101.373 48.3017 101.049 49.5156L97.764 61.8537C97.4407 63.0676 98.1573 64.3152 99.3646 64.6402L115.788 69.0621C116.995 69.3872 118.236 68.6666 118.559 67.4527L121.845 55.1146C122.168 53.9007 121.451 52.6531 120.244 52.3281Z"
          fill="#989FED"/>
    <path d="M116.404 61.4973C112.391 62.013 107.322 61.6945 104.908 60.845C99.085 58.7971 98.376 56.6734 104.546 57.2802C111.501 57.9628 111.199 57.0071 115.966 57.2802C119.828 57.5077 120.236 60.9967 116.404 61.4821V61.4973Z"
          fill="#240093"/>
    <path d="M130.073 69.9466C131.331 69.9466 132.351 65.763 132.351 60.6022C132.351 55.4414 131.331 51.2578 130.073 51.2578C128.815 51.2578 127.795 55.4414 127.795 60.6022C127.795 65.763 128.815 69.9466 130.073 69.9466Z"
          fill="#A3BAD6"/>
    <path d="M88.8584 102.5C68.7638 100.999 65.1884 92.7161 65.1582 89.5305C65.294 84.7218 68.975 86.5269 89.0696 87.9377C109.164 86.9972 112.74 85.3589 112.77 90.2131C112.634 93.4594 108.953 101.651 88.8584 102.516V102.5Z"
          fill="url(#paint3_radial_303_7196)"/>
    <path d="M130.073 105.701C131.331 105.701 132.351 101.517 132.351 96.3566C132.351 91.1958 131.331 87.0122 130.073 87.0122C128.815 87.0122 127.795 91.1958 127.795 96.3566C127.795 101.517 128.815 105.701 130.073 105.701Z"
          fill="#A3BAD6"/>
    <path d="M92.8397 92.8525L110.475 83.3716L107.926 78.578C107.066 76.97 105.09 76.3633 103.49 77.2279L91.6329 83.5991C90.0337 84.4638 89.4303 86.451 90.2902 88.0589L92.8397 92.8525Z"
          fill="url(#paint4_radial_303_7196)"/>
    <path d="M128.895 126.832C117.264 134.629 98.2406 144.626 86.3377 149.708C80.7559 152.089 76.4413 150.148 73.4995 145.794C67.3142 136.632 59.4393 119.323 59.4393 119.323C56.9652 114.681 58.338 109.827 63.3315 106.414C77.3766 96.7814 105.904 83.5385 105.904 83.5385C110.521 81.0507 114.896 82.2642 117.988 86.5117C123.691 94.3543 129.333 106.945 132.803 113.923C135.156 118.641 131.701 124.966 128.91 126.832H128.895Z"
          fill="url(#paint5_radial_303_7196)"/>
    <path d="M109.621 122.465C110.957 112.282 103.832 102.937 93.7048 101.593C83.5779 100.249 74.2847 107.414 72.9479 117.597C71.6111 127.78 78.7368 137.124 88.8637 138.469C98.9906 139.813 108.284 132.648 109.621 122.465Z"
          fill="white"/>
    <path d="M107.466 122.179C108.646 113.192 102.357 104.945 93.42 103.758C84.4826 102.572 76.2809 108.896 75.1011 117.883C73.9213 126.869 80.2101 135.117 89.1475 136.303C98.085 137.489 106.287 131.166 107.466 122.179Z"
          fill="url(#paint6_radial_303_7196)"/>
    <path d="M140.406 95.0824C136.483 88.9539 126.059 92.2608 118.787 100.468C105.964 114.939 117.279 122.448 124.098 122.676C130.917 122.903 136.725 123.753 141.899 118.974C146.199 115 144.69 101.787 140.406 95.0975V95.0824Z"
          fill="url(#paint7_radial_303_7196)"/>
    <path d="M47.8386 93.4898C52.817 97.0394 58.5648 103.047 62.5173 107.658C67.3599 113.301 72.459 126.741 62.8945 128.213C53.345 129.684 44.3085 123.798 40.7784 120.962C37.2482 118.125 32.9487 110.586 35.2116 98.1923C37.0069 88.3473 44.3085 90.9868 47.8085 93.4898H47.8386Z"
          fill="url(#paint8_radial_303_7196)"/>
    <path style="mix-blend-mode:screen" opacity="0.6"
          d="M100.446 113.458C100.506 109.244 97.1566 105.78 92.9661 105.72C88.7757 105.661 85.3306 109.028 85.2713 113.242C85.2121 117.456 88.5611 120.92 92.7516 120.979C96.942 121.039 100.387 117.671 100.446 113.458Z"
          fill="url(#paint9_radial_303_7196)"/>
    <path d="M90.2937 117.236C90.3156 115.678 89.0772 114.397 87.5276 114.375C85.9781 114.353 84.7042 115.598 84.6822 117.156C84.6603 118.714 85.8987 119.995 87.4483 120.017C88.9979 120.039 90.2718 118.794 90.2937 117.236Z"
          fill="#E1E8F6"/>
    <defs>
        <radialGradient id="paint0_radial_303_7196" cx="0" cy="0" r="1" gradientUnits="userSpaceOnUse"
                        gradientTransform="translate(91.1648 47.2265) scale(60.2837 45.463)">
            <stop offset="0.35" stop-color="white"/>
            <stop offset="0.79" stop-color="#E6E7E8"/>
            <stop offset="0.96" stop-color="#D1D3D4"/>
        </radialGradient>
        <radialGradient id="paint1_radial_303_7196" cx="0" cy="0" r="1" gradientUnits="userSpaceOnUse"
                        gradientTransform="translate(86.1713 99.5668) scale(65.0962 73.9657)">
            <stop offset="0.23" stop-color="white"/>
            <stop offset="0.79" stop-color="#E6E7E8"/>
            <stop offset="0.96" stop-color="#D1D3D4"/>
        </radialGradient>
        <radialGradient id="paint2_radial_303_7196" cx="0" cy="0" r="1" gradientUnits="userSpaceOnUse"
                        gradientTransform="translate(73.7515 57.4366) rotate(32.7336) scale(14.8232 11.5888)">
            <stop offset="0.12" stop-color="#5F2BE9"/>
            <stop offset="0.2" stop-color="#5322D8"/>
            <stop offset="0.35" stop-color="#4115BD"/>
            <stop offset="0.96" stop-color="#240093"/>
        </radialGradient>
        <radialGradient id="paint3_radial_303_7196" cx="0" cy="0" r="1" gradientUnits="userSpaceOnUse"
                        gradientTransform="translate(-131.997 220.45) rotate(-30.1371) scale(18.3528 35.0854)">
            <stop offset="0.52" stop-color="#BD0095"/>
            <stop offset="0.68" stop-color="#B20993"/>
            <stop offset="0.96" stop-color="#97228F"/>
            <stop offset="1" stop-color="#92278F"/>
        </radialGradient>
        <radialGradient id="paint4_radial_303_7196" cx="0" cy="0" r="1" gradientUnits="userSpaceOnUse"
                        gradientTransform="translate(99.1419 86.4506) rotate(-26.6064) scale(11.1307 7.70565)">
            <stop offset="0.35" stop-color="#5F2BE9"/>
            <stop offset="0.58" stop-color="#5322D8"/>
            <stop offset="1" stop-color="#4115BD"/>
        </radialGradient>
        <radialGradient id="paint5_radial_303_7196" cx="0" cy="0" r="1" gradientUnits="userSpaceOnUse"
                        gradientTransform="translate(94.3122 113.829) rotate(-10.7578) scale(41.0569 32.1893)">
            <stop offset="0.18" stop-color="white"/>
            <stop offset="0.23" stop-color="#E5E5FD"/>
            <stop offset="0.37" stop-color="#A0A0FA"/>
            <stop offset="0.44" stop-color="#8585F9"/>
            <stop offset="0.59" stop-color="#7673F4"/>
            <stop offset="0.9" stop-color="#5F2BE9"/>
        </radialGradient>
        <radialGradient id="paint6_radial_303_7196" cx="0" cy="0" r="1" gradientUnits="userSpaceOnUse"
                        gradientTransform="translate(96.9554 117.64) rotate(39.455) scale(37.1185 28.9836)">
            <stop offset="0.12" stop-color="#5F2BE9"/>
            <stop offset="0.2" stop-color="#5322D8"/>
            <stop offset="0.35" stop-color="#4115BD"/>
            <stop offset="0.96" stop-color="#240093"/>
        </radialGradient>
        <radialGradient id="paint7_radial_303_7196" cx="0" cy="0" r="1" gradientUnits="userSpaceOnUse"
                        gradientTransform="translate(130.498 102.979) rotate(-44.518) scale(18.3489 15.9653)">
            <stop offset="0.45" stop-color="white"/>
            <stop offset="0.83" stop-color="#E6E7E8"/>
            <stop offset="1" stop-color="#D1D3D4"/>
        </radialGradient>
        <radialGradient id="paint8_radial_303_7196" cx="0" cy="0" r="1" gradientUnits="userSpaceOnUse"
                        gradientTransform="translate(64.3176 106.06) rotate(31.631) scale(29.5163 19.8198)">
            <stop offset="0.35" stop-color="white"/>
            <stop offset="0.83" stop-color="#E6E7E8"/>
            <stop offset="1" stop-color="#D1D3D4"/>
        </radialGradient>
        <radialGradient id="paint9_radial_303_7196" cx="0" cy="0" r="1" gradientUnits="userSpaceOnUse"
                        gradientTransform="translate(93.026 113.701) rotate(-90) scale(7.63026 7.58827)">
            <stop offset="0.14" stop-color="#C1EAF4"/>
            <stop offset="0.23" stop-color="#BAD2E8"/>
            <stop offset="0.35" stop-color="#B4B7DC"/>
            <stop offset="0.96" stop-color="#7673F4"/>
        </radialGradient>
    </defs>
</svg>
